# xmcd
#
# Track frame offsets: 
#        150
#        10487
#        22770
#        32942
#        42782
#        55760
#        66327
#        78965
#        89752
#        101470
#        112352
#        125132
#
# Disc length: 1849 seconds
#
# Revision: 0
# Processed by: cddbd v1.4PL0 Copyright (c) Steve Scherf et al.
# Submitted via: ExactAudioCopy v0.90b3
#
DISCID=a207370c
DTITLE=George Jones - The Best Of George Jones (20th Century Masters T
DTITLE=he Millennium Collection)
DYEAR=1900
DGENRE=Country
TTITLE0=Why Baby Why
TTITLE1=Just One More
TTITLE2=Don't Stop The Music
TTITLE3=Too Much Water
TTITLE4=Color Of The Blues
TTITLE5=Treasure Of Love
TTITLE6=White Lightning
TTITLE7=Who Shot Sam
TTITLE8=Window Up Above
TTITLE9=Tender Years
TTITLE10=Achin', Breakin' Heart
TTITLE11=Family Bible
EXTD=
EXTT0=
EXTT1=
EXTT2=
EXTT3=
EXTT4=
EXTT5=
EXTT6=
EXTT7=
EXTT8=
EXTT9=
EXTT10=
EXTT11=
PLAYORDER=
